#!OML:ASF F:\VICON\USERDATA\INSTALL\Justin_Nancy\Justin_Nancy.ASF
:FULLY-SPECIFIED
:DEGREES
111
root 12.9093 17.8362 -10.6384 0.160281 2.99766 -1.56646
lowerback 6.78772 -0.862081 0.602908
upperback 0.204871 -0.966153 3.62452
thorax -3.54459 -0.461264 3.51165
lowerneck -15.9607 -4.12551 -10.3297
upperneck 22.5228 -4.55205 6.10943
head 10.2121 -2.28721 3.2757
rclavicle 4.42296e-015 -4.53229e-014
rhumerus -32.8491 -17.2907 -76.5767
rradius 25.1096
rwrist 13.4438
rhand -14.4645 15.0554
rfingers 7.12502
rthumb 11.6812 -14.5989
lclavicle 4.42296e-015 -4.53229e-014
lhumerus -26.2683 9.35469 86.7381
lradius 27.3424
lwrist -11.0923
lhand -15.1406 20.1245
lfingers 7.12502
lthumb 11.0292 49.8147
rfemur -4.36388 1.15807 29.023
rtibia 5.40716
rfoot 1.32972 -0.900062
rtoes 8.18331
lfemur -15.0435 4.63193 -16.6114
ltibia 62.8758
lfoot 16.4229 -16.7777
ltoes -4.91295
112
root 12.9138 17.8413 -10.5163 0.136764 2.48716 -1.76345
lowerback 6.91879 -0.656693 0.771188
upperback 0.178438 -0.672267 3.67989
thorax -3.66346 -0.316435 3.44911
lowerneck -16.0072 -4.10468 -10.2963
upperneck 22.7195 -4.51119 6.02173
head 10.2853 -2.27707 3.247
rclavicle -2.73329e-015 -7.95139e-016
rhumerus -32.5353 -17.0656 -76.6842
rradius 25.1542
rwrist 13.2775
rhand -14.3236 15.0415
rfingers 7.12502
rthumb 11.8171 -14.6051
lclavicle -2.73329e-015 -7.95139e-016
lhumerus -26.645 9.74965 86.6023
lradius 27.4204
lwrist -11.2821
lhand -15.1065 24.7265
lfingers 7.12502
lthumb 11.062 54.415
rfemur -1.50516 1.47367 29.3179
rtibia 0.438442
rfoot 3.50975 -0.284836
rtoes 6.98384
lfemur -15.738 5.25857 -16.2568
ltibia 63.9357
lfoot 13.6225 -15.7749
ltoes -7.75602
113
root 12.9149 17.8682 -10.3927 0.134837 2.13689 -1.9598
lowerback 7.05906 -0.505177 0.959782
upperback 0.0627386 -0.445821 3.69475
thorax -3.87604 -0.205158 3.33979
lowerneck -15.8287 -4.07409 -10.1524
upperneck 22.8225 -4.52007 5.98123
head 10.284 -2.27743 3.21039
rclavicle -3.08116e-015 -2.38542e-015
rhumerus -32.4425 -16.7399 -76.8616
rradius 25.4521
rwrist 12.906
rhand -14.1426 14.6138
rfingers 7.12502
rthumb 11.9916 -15.0227
lclavicle -3.08116e-015 -2.38542e-015
lhumerus -27.2274 10.0051 86.4147
lradius 27.5433
lwrist -11.3671
lhand -16.4709 31.0484
lfingers 7.12502
lthumb 9.74581 60.8029
rfemur -0.984256 1.63109 29.5683
rtibia 2.98177e-015
rfoot 3.56908 -0.00953145
rtoes 6.0133
lfemur -16.6842 5.72531 -15.9272
ltibia 64.8591
lfoot 11.1825 -14.5349
ltoes -8.99928
114
root 12.9144 17.9016 -10.2706 0.169671 1.87858 -2.18759
lowerback 7.07969 -0.36613 1.214
upperback 0.0793212 -0.23942 3.69681
thorax -3.88197 -0.107402 3.1771
lowerneck -15.947 -4.11274 -10.0499
upperneck 22.8868 -4.59051 5.97527
head 10.3333 -2.30021 3.18099
rclavicle 6.55989e-015 -2.8625e-014
rhumerus -32.2266 -16.4617 -77.1019
rradius 25.9622
rwrist 12.7192
rhand -13.8139 14.019
rfingers 7.12502
rthumb 12.3085 -15.5988
lclavicle 6.55989e-015 -2.8625e-014
lhumerus -27.5688 10.2382 86.2741
lradius 27.7403
lwrist -11.4601
lhand -18.8593 12.9938
lfingers 7.12502
lthumb 7.44097 42.8429
rfemur -0.860731 1.70359 29.8403
rtibia 7.45443e-015
rfoot 3.53049 0.16897
rtoes 6.02428
lfemur -17.8111 6.13448 -15.5598
ltibia 65.6533
lfoot 9.09056 -13.0987
ltoes -8.93539
115
root 12.9205 17.8588 -10.1626 0.181806 1.64875 -2.21991
lowerback 7.00167 -0.186259 1.33578
upperback 0.25106 -0.00321919 3.59653
thorax -3.67051 0.00548309 2.97634
lowerneck -16.3702 -4.12977 -9.87963
upperneck 22.9835 -4.602 5.90825
head 10.4439 -2.29209 3.12415
rclavicle 4.07509e-015 -6.59965e-014
rhumerus -31.7049 -16.3941 -77.431
rradius 26.3015
rwrist 12.4204
rhand -13.9049 13.8991
rfingers 7.12502
rthumb 12.2208 -15.7238
lclavicle 4.07509e-015 -6.59965e-014
lhumerus -27.6006 10.3267 86.1334
lradius 27.8457
lwrist -11.4244
lhand -19.7322 16.031
lfingers 7.12502
lthumb 6.59832 45.9082
rfemur -0.109481 1.7431 29.9401
rtibia 1.02747e-014
rfoot 2.72176 0.118507
rtoes 5.42031
lfemur -19.1279 6.42804 -15.4851
ltibia 66.6026
lfoot 6.71037 -11.4668
ltoes -9.90385
116
root 12.9274 17.844 -10.0561 0.216429 1.25617 -2.37456
lowerback 7.07772 -0.0306711 1.60732
upperback 0.339975 0.222258 3.52146
thorax -3.629 0.111918 2.72177
lowerneck -16.6886 -4.07628 -9.62633
upperneck 23.0856 -4.52977 5.76296
head 10.5248 -2.24945 3.03819
rclavicle -5.56597e-015 6.36111e-015
rhumerus -31.0843 -16.3888 -77.7589
rradius 26.2791
rwrist 12.1488
rhand -14.3573 13.981
rfingers 7.12502
rthumb 11.7846 -15.6674
lclavicle -5.56597e-015 6.36111e-015
lhumerus -27.8303 10.6409 85.8541
lradius 27.994
lwrist -11.2089
lhand -20.1337 14.4758
lfingers 7.12502
lthumb 6.21073 44.3648
rfemur -0.926701 1.9452 30.0961
rtibia 2.34384
rfoot 1.0614 -0.261221
rtoes 8.15522
lfemur -20.3325 6.7434 -15.3487
ltibia 67.2649
lfoot 5.79793 -9.56807
ltoes -5.50817
117
root 12.932 17.8476 -9.94588 0.285537 0.744765 -2.41919
lowerback 7.14491 0.169161 1.72111
upperback 0.327817 0.49821 3.45835
thorax -3.68757 0.246548 2.5641
lowerneck -16.2446 -4.08525 -9.69258
upperneck 22.8099 -4.58779 5.87497
head 10.349 -2.27304 3.08148
rclavicle 2.83268e-015 -1.19271e-014
rhumerus -30.581 -16.2875 -77.9725
rradius 26.1819
rwrist 11.7347
rhand -14.5747 14.2377
rfingers 7.12502
rthumb 11.5749 -15.4226
lclavicle 2.83268e-015 -1.19271e-014
lhumerus -28.1395 10.6631 85.7348
lradius 28.0899
lwrist -10.3598
lhand -19.6813 15.298
lfingers 7.12502
lthumb 6.64747 45.1737
rfemur -1.50835 2.26686 30.1209
rtibia 4.16357
rfoot -0.486076 -0.479749
rtoes 12.3305
lfemur -21.5411 7.1849 -15.3417
ltibia 67.6909
lfoot 2.23181 -7.93718
ltoes -20.9332
118
root 12.9392 17.8389 -9.83525 0.38616 0.490426 -2.26738
lowerback 7.0823 0.274927 1.59937
upperback 0.29387 0.625535 3.39226
thorax -3.69219 0.311373 2.55092
lowerneck -15.7635 -4.03658 -9.95003
upperneck 22.6859 -4.58065 6.21351
head 10.2262 -2.25987 3.25057
rclavicle 2.48481e-016 8.74653e-015
rhumerus -30.0979 -16.1131 -78.1267
rradius 26.3271
rwrist 11.4672
rhand -14.1888 13.7308
rfingers 7.12502
rthumb 11.9471 -15.9083
lclavicle 2.48481e-016 8.74653e-015
lhumerus -28.4861 10.6583 85.7314
lradius 28.2883
lwrist -9.3673
lhand -18.9573 18.192
lfingers 7.12502
lthumb 7.34636 48.0444
rfemur -1.93403 2.33919 29.9521
rtibia 5.56305
rfoot -1.1678 -0.390754
rtoes 11.5968
lfemur -22.4414 7.11267 -15.5499
ltibia 67.8506
lfoot 2.40048 -6.60792
ltoes -18.8108
119
root 12.9409 17.8385 -9.72334 0.407809 0.25756 -2.37691
lowerback 7.14773 0.379973 1.69501
upperback 0.298049 0.774852 3.37546
thorax -3.72804 0.383676 2.46415
lowerneck -15.3578 -4.03574 -10.1933
upperneck 22.451 -4.65009 6.61656
head 10.0865 -2.27177 3.42668
rclavicle 4.87022e-015 7.95139e-015
rhumerus -29.7239 -15.5633 -78.4831
rradius 26.7272
rwrist 10.4908
rhand -13.9699 13.1311
rfingers 7.12502
rthumb 12.1581 -16.4956
lclavicle 4.87022e-015 7.95139e-015
lhumerus -28.7453 10.69 85.653
lradius 28.3938
lwrist -8.84212
lhand -18.7959 18.8076
lfingers 7.12502
lthumb 7.50217 48.6545
rfemur -2.03914 2.38783 30.1506
rtibia 6.60184
rfoot -1.89796 -0.423248
rtoes 8.53613
lfemur -23.3487 6.96092 -15.4673
ltibia 67.8034
lfoot 2.96855 -5.038
ltoes -13.7537
